Coordinates
version=1
nRows=13
nColumns=38
inDegrees=no

Units are S.I. units (second, meters, Newtons, ...)
If the header above contains a line with 'inDegrees', this indicates whether rotational values are in degrees (yes) or radians (no).

endheader
time	pelvis_tilt	pelvis_list	pelvis_rotation	pelvis_tx	pelvis_ty	pelvis_tz	hip_flexion_r	hip_adduction_r	hip_rotation_r	knee_angle_r	ankle_angle_r	subtalar_angle_r	mtp_angle_r	hip_flexion_l	hip_adduction_l	hip_rotation_l	knee_angle_l	ankle_angle_l	subtalar_angle_l	mtp_angle_l	lumbar_extension	lumbar_bending	lumbar_rotation	arm_flex_r	arm_add_r	arm_rot_r	elbow_flex_r	pro_sup_r	wrist_flex_r	wrist_dev_r	arm_flex_l	arm_add_l	arm_rot_l	elbow_flex_l	pro_sup_l	wrist_flex_l	wrist_dev_l
0	-0.139164	1.2084	-1.41361	0.658572	1.72552	0.927521	-0.487081	0.0423834	-0.17031	0.587529	-0.212432	0	0	-0.0192366	-0.0563287	-0.139852	0.280416	-0.398192	0	0	-0.31742	0.0926069	0.248743	-0.0221847	-0.961838	0.0922103	1.61206	0.286951	0	0	0.717836	-0.471503	0.821358	1.04365	0.628775	0	0
0.01	-0.130064	1.20678	-1.41887	0.660078	1.71487	0.928855	-0.474718	0.0328374	-0.161728	0.627159	-0.244715	0	0	-0.0313597	-0.0501958	-0.120659	0.278718	-0.401796	0	0	-0.318995	0.0896725	0.245644	-0.0270044	-0.958674	0.0889292	1.61027	0.289168	0	0	0.715416	-0.469077	0.819524	1.04196	0.628675	0	0
0.02	-0.116028	1.20103	-1.427	0.66193	1.7043	0.93051	-0.464825	0.0212816	-0.159474	0.668229	-0.297355	0	0	-0.0452273	-0.0435045	-0.108557	0.285601	-0.39936	0	0	-0.325082	0.0863601	0.241476	-0.0332961	-0.95562	0.082669	1.60958	0.292931	0	0	0.714811	-0.46637	0.819149	1.04051	0.629019	0	0
0.03	-0.101187	1.19299	-1.43619	0.663774	1.69388	0.932348	-0.454226	0.00868484	-0.15843	0.712329	-0.362058	0	0	-0.0606762	-0.0370221	-0.102132	0.296767	-0.391504	0	0	-0.333973	0.0830335	0.238311	-0.0407654	-0.953392	0.0745666	1.61005	0.296234	0	0	0.716943	-0.464988	0.822838	1.03968	0.63342	0	0
0.04	-0.0876822	1.18504	-1.44516	0.665545	1.68358	0.934128	-0.439628	-0.0045001	-0.157244	0.760379	-0.430476	0	0	-0.0762694	-0.0309694	-0.100394	0.309214	-0.380495	0	0	-0.342901	0.0800648	0.23618	-0.0477489	-0.952539	0.067348	1.61108	0.298405	0	0	0.71887	-0.463606	0.826278	1.03985	0.635221	0	0
0.05	-0.0772712	1.17718	-1.45286	0.667095	1.67357	0.935814	-0.421038	-0.0167833	-0.153958	0.810305	-0.50552	0	0	-0.0922893	-0.02665	-0.102884	0.321749	-0.366422	0	0	-0.352245	0.0780955	0.23594	-0.0538568	-0.953255	0.0607178	1.61292	0.298957	0	0	0.72018	-0.461681	0.827788	1.0407	0.631952	0	0
0.06	-0.0711978	1.16984	-1.45839	0.668483	1.66382	0.937377	-0.398869	-0.02736	-0.147988	0.861351	-0.563898	0	0	-0.10859	-0.0241686	-0.108517	0.332292	-0.353298	0	0	-0.361169	0.0776442	0.237308	-0.0578354	-0.955341	0.0561318	1.61464	0.297941	0	0	0.721463	-0.460603	0.829244	1.04181	0.631225	0	0
0.07	-0.0696855	1.16315	-1.46156	0.669596	1.65423	0.938845	-0.374024	-0.0358087	-0.13961	0.912255	-0.611015	0	0	-0.125184	-0.02345	-0.114825	0.340253	-0.340823	0	0	-0.369582	0.0785357	0.24015	-0.0597923	-0.958031	0.0533552	1.61635	0.296773	0	0	0.721796	-0.459996	0.829119	1.04392	0.629047	0	0
0.08	-0.0722756	1.15719	-1.46215	0.670415	1.64482	0.940298	-0.347257	-0.041717	-0.130281	0.960784	-0.654757	0	0	-0.141872	-0.0243399	-0.119965	0.345503	-0.328495	0	0	-0.377253	0.080765	0.243996	-0.0603041	-0.960619	0.0517232	1.61807	0.29543	0	0	0.722471	-0.460571	0.829841	1.04583	0.630809	0	0
0.09	-0.0776032	1.15165	-1.46077	0.671133	1.63557	0.941814	-0.31964	-0.0456909	-0.122046	1.00565	-0.687887	0	0	-0.15899	-0.0259785	-0.12415	0.347403	-0.318888	0	0	-0.38414	0.084061	0.248128	-0.0590646	-0.962954	0.0517172	1.61886	0.294357	0	0	0.722437	-0.460421	0.829288	1.04663	0.632374	0	0
0.1	-0.0843597	1.14658	-1.45772	0.671751	1.62659	0.943465	-0.291478	-0.0476723	-0.115182	1.04688	-0.698132	0	0	-0.176165	-0.0283392	-0.127386	0.346377	-0.312414	0	0	-0.390678	0.0877668	0.25168	-0.0560675	-0.964293	0.0529134	1.61843	0.293538	0	0	0.722088	-0.459594	0.827564	1.04684	0.631486	0	0
0.11	-0.0917596	1.14247	-1.45407	0.672193	1.61776	0.945217	-0.262138	-0.0483978	-0.109184	1.08543	-0.698132	0	0	-0.19298	-0.0314001	-0.132046	0.343466	-0.306918	0	0	-0.396418	0.0913495	0.255012	-0.0521197	-0.964955	0.0551066	1.61726	0.292796	0	0	0.721044	-0.458423	0.824571	1.04718	0.627559	0	0
0.12	-0.0997774	1.13913	-1.44883	0.672698	1.60891	0.947094	-0.233117	-0.048145	-0.105202	1.11856	-0.697951	0	0	-0.209773	-0.035041	-0.137709	0.338852	-0.302928	0	0	-0.400721	0.0957425	0.257362	-0.048075	-0.965145	0.0579919	1.61546	0.292413	0	0	0.719551	-0.456994	0.821392	1.04593	0.624603	0	0
